<?xml version="1.0" encoding="utf-8"?>
<!-- Generator: Adobe Illustrator 15.0.2, SVG Export Plug-In . SVG Version: 6.00 Build 0)  -->
<!DOCTYPE svg PUBLIC "-//W3C//DTD SVG 1.1//EN" "http://www.w3.org/Graphics/SVG/1.1/DTD/svg11.dtd">
<svg version="1.1" id="Layer_1" xmlns="http://www.w3.org/2000/svg" xmlns:xlink="http://www.w3.org/1999/xlink" x="0px" y="0px"
	 width="426.243px" height="35.839px" viewBox="0 0 426.243 35.839" enable-background="new 0 0 426.243 35.839"
	 xml:space="preserve">
<g>
	<g>
		<path fill="#010101" d="M21.215,26.146L0,17.344v-5.538L21.215,2.99v6.628L8.322,14.586l12.893,4.971V26.146z"/>
	</g>
	<g>
		<path fill="#010101" d="M405.029,17.481l12.892-4.972l-12.892-4.969V0.914l21.214,8.815v5.539l-21.214,8.802V17.481z"/>
	</g>
	<rect x="155.747" y="27.839" fill="#010101" width="8" height="8"/>
	<rect x="163.747" y="27.839" fill="#010101" width="6" height="8"/>
	<g>
		<path fill="#010101" d="M53.633,28.195H42.354V16.917h-5.639v11.278H25.438V0h11.278v11.278h5.639V0h11.278V28.195z"/>
		<path fill="#010101" d="M87.467,28.195H76.189V16.917H70.55v11.278H59.272V2.819h2.819V0h22.557v2.819h2.819V28.195z
			 M76.189,11.278V5.639H70.55v5.639H76.189z"/>
		<path fill="#010101" d="M121.302,28.195H95.926v-2.819h-2.819V2.819h2.819V0h25.376v5.639h-16.917v16.917h16.917V28.195z"/>
		<path fill="#010101" d="M155.136,28.195h-11.278V16.917h-5.639v11.278h-11.278V0h11.278v11.278h5.639V0h11.278v11.278h-2.819
			v5.639h2.819V28.195z"/>
		<path fill="#010101" d="M198.371,28.195h-11.278V16.917h-5.639v11.278h-11.278V2.819h2.819V0h22.557v2.819h2.819V28.195z
			 M187.093,11.278V5.639h-5.639v5.639H187.093z"/>
		<path fill="#010101" d="M232.206,25.376h-2.82v2.819H204.01v-5.64h16.917v-5.639h-14.098v-2.819h-2.819V2.819h2.819V0h25.377
			v5.639h-16.918v5.639h14.098v2.819h2.82V25.376z"/>
		<path fill="#010101" d="M266.04,28.195h-11.278V16.917h-5.64v11.278h-11.278V2.819h2.82V0h22.556v2.819h2.82V28.195z
			 M254.762,11.278V5.639h-5.64v5.639H254.762z"/>
		<path fill="#010101" d="M299.875,25.376h-2.82v2.819h-22.556v-2.819h-2.82V0h11.278v22.556h5.64V0h11.278V25.376z"/>
		<path fill="#010101" d="M333.709,28.195h-11.278V16.917h-5.64v11.278h-11.278V0h25.376v2.819h2.82v8.459h-2.82v5.639h2.82V28.195z
			 M322.431,11.278V5.639h-5.64v5.639H322.431z"/>
		<path fill="#010101" d="M367.544,25.376h-2.82v2.819h-22.556v-2.819h-2.82V0h11.278v22.556h5.64V0h11.278V25.376z"/>
		<path fill="#010101" d="M401.378,25.376h-2.82v2.819h-25.376v-5.64H390.1v-5.639h-14.098v-2.819h-2.82V2.819h2.82V0h25.376v5.639
			H384.46v5.639h14.098v2.819h2.82V25.376z"/>
	</g>
</g>
</svg>
