<?xml version="1.0" encoding="utf-8"?>
<!-- Generator: Adobe Illustrator 15.0.2, SVG Export Plug-In . SVG Version: 6.00 Build 0)  -->
<!DOCTYPE svg PUBLIC "-//W3C//DTD SVG 1.1//EN" "http://www.w3.org/Graphics/SVG/1.1/DTD/svg11.dtd">
<svg version="1.1" id="svg2997" xmlns:svg="http://www.w3.org/2000/svg"
	 xmlns="http://www.w3.org/2000/svg" xmlns:xlink="http://www.w3.org/1999/xlink" x="0px" y="0px" width="180.993px"
	 height="46.364px" viewBox="9.004 116.562 180.993 46.364" enable-background="new 9.004 116.562 180.993 46.364"
	 xml:space="preserve">
<path id="path85" fill="#FFFFFF" d="M-2559.936,6359.65c19.127,26.488,46.371,47.744,80.988,44.707
	C-2479.339,6371.648-2523.898,6352.641-2559.936,6359.65z"/>
<path id="path93" fill="#FFFFFF" d="M-2634.014,6073.506c4.082-7.232,2.571-17.811,3.831-26.684
	c-9.02,4.635-15.506,14.72-24.551,18.641C-2652.134,6070.818-2640.447,6070.829-2634.014,6073.506z"/>
<path id="path95" fill="#FFFFFF" d="M-2687.179,6018.109l-18.654,18.211c4.158,3.301,9.676,8.133,17.11,6.36L-2687.179,6018.109z"/>
<path id="path97" fill="#FFFFFF" d="M-2731.117,5998.391c-4.355-0.362-14.41,20.156-18.785,19.857l14.762,8.729
	C-2730.055,6027.281-2732.816,6001.961-2731.117,5998.391L-2731.117,5998.391z"/>
<path id="path99" fill="#FFFFFF" d="M-2776.505,5989.09l4.736-11.668c-10.245,0.812-15.511,20.68-21.719,26.244
	C-2776.37,6007.109-2775.727,6011.811-2776.505,5989.09z"/>
<path id="path101" fill="#FFFFFF" d="M-2825.16,5962.186l-18.405,31.539l17.091,3.963L-2825.16,5962.186L-2825.16,5962.186z"/>
<path id="path103" fill="#FFFFFF" d="M-2872.173,5967.637l-21.06,16.139C-2872.035,5992.07-2870.821,5995.182-2872.173,5967.637z"/>
<path id="path105" fill="#FFFFFF" d="M-2922.987,5980.398c-3.084-9.172-0.18-20.227,0.396-29.914
	c-4.952,9.422-16.338,16.166-17.745,27.299C-2935.489,5981.802-2928.796,5980.021-2922.987,5980.398L-2922.987,5980.398z"/>
<g id="g3173" transform="translate(-0.4495808,1251.722)">
	<path id="path2320" d="M185.373-1089.163c-1.527-0.85-2.496-1.666-3.189-2.688l-0.402-0.596l-0.586,0.516
		c-0.815,0.726-1.141,0.965-1.887,1.406c-1.727,1.021-4.043,1.438-6.92,1.252c-5.955-0.386-9.082-3.238-9.49-8.66
		c-0.182-2.412,0.223-4.606,1.158-6.289c1.281-2.305,3.789-3.914,7.312-4.694c1.804-0.398,3.267-0.545,5.978-0.595l2.517-0.049
		l-0.05-1.312c-0.026-0.723-0.09-1.543-0.137-1.823c-0.25-1.478-0.871-2.224-2.035-2.445c-0.901-0.17-1.319-0.18-2.356-0.053
		c-2.006,0.246-4.099,1.065-6.679,2.623c-0.69,0.416-1.297,0.744-1.346,0.726c-0.097-0.037-3.463-5.683-3.461-5.8
		c0.008-0.166,2.094-1.315,3.582-1.973c4.022-1.775,6.543-2.377,9.952-2.377c3.171,0,5.359,0.532,7.128,1.735
		c0.692,0.474,1.735,1.552,2.114,2.187c0.351,0.586,0.777,1.646,1.013,2.51l0.188,0.691l-0.041,4.766
		c-0.021,2.619-0.041,6.431-0.041,8.468c0,4.178,0,4.18,0.633,5.414c0.273,0.536,0.498,0.813,1.267,1.569
		c0.854,0.842,0.922,0.931,0.81,1.06c-0.068,0.075-1.029,1.184-2.138,2.461c-1.108,1.274-2.058,2.328-2.106,2.338
		C186.108-1088.786,185.756-1088.953,185.373-1089.163z M175.903-1095.453c1.229-0.154,2.246-0.642,3.182-1.519l0.509-0.478
		l0.055-3.168l0.054-3.168l-1.316,0.058c-4.154,0.178-5.707,0.842-6.377,2.729c-0.213,0.596-0.295,2.16-0.146,2.787
		c0.334,1.418,1.457,2.532,2.769,2.748c0.245,0.038,0.485,0.077,0.53,0.082C175.203-1095.374,175.539-1095.408,175.903-1095.453z
		 M137.623-1089.718c-1.318-0.205-2.459-0.68-3.502-1.459c-1.109-0.826-1.763-1.803-2.238-3.348
		c-0.445-1.441-0.436-1.025-0.49-18.475c-0.051-15.839-0.057-16.158-0.236-18.187c-0.102-1.136-0.162-2.086-0.137-2.111
		c0.074-0.073,8.055-1.891,8.154-1.856c0.098,0.037,0.248,1.135,0.361,2.654c0.162,10.801,0.012,21.604,0.155,32.405
		c0.063,2.619,0.087,2.937,0.24,3.373c0.379,1.078,0.901,1.47,1.963,1.465c0.336,0,0.662-0.018,0.728-0.038
		c0.104-0.033,0.479,1.133,1.371,4.288l0.162,0.578l-1.271,0.334C141.034-1089.607,139.186-1089.476,137.623-1089.718z
		 M154.555-1089.644c-1.066-0.125-1.982-0.391-2.85-0.822c-2.164-1.08-3.219-2.633-3.713-5.475
		c-0.066-0.375-0.109-5.193-0.146-16.57c-0.053-15.98-0.055-16.049-0.25-18.383c-0.117-1.43-0.164-2.367-0.119-2.408
		c0.102-0.088,8.1-1.91,8.152-1.857c0.088,0.088,0.268,1.711,0.348,3.148c0.213,11.125-0.035,22.258,0.162,33.383
		c0.055,1.18,0.107,1.611,0.238,1.984c0.221,0.625,0.525,1.014,0.945,1.199c0.457,0.203,1.182,0.281,1.516,0.166
		c0.174-0.063,0.283-0.066,0.316-0.015c0.077,0.13,1.401,4.816,1.368,4.851c-0.016,0.018-0.504,0.164-1.084,0.328
		C158.041-1089.722,155.75-1089.501,154.555-1089.644z M67.676-1089.716c-0.134-0.018-0.61-0.076-1.059-0.127
		c-0.447-0.053-1.237-0.215-1.756-0.363c-5.568-1.582-9.046-6.182-9.853-13.021c-0.124-1.047-0.123-3.988,0.001-5.09
		c0.362-3.213,1.4-6.119,2.997-8.388c1.083-1.536,2.861-3.086,4.462-3.889c2.021-1.016,3.78-1.402,6.368-1.402
		c2.15,0,3.536,0.22,5.156,0.816c3.931,1.449,7.106,5.004,8.254,9.238c0.922,3.398,0.905,8.645-0.037,12.051
		c-0.744,2.691-2.024,4.861-3.966,6.725c-1.942,1.865-4.086,2.918-6.7,3.298C70.775-1089.757,68.143-1089.654,67.676-1089.716z
		 M70.77-1096.027c1.815-0.824,2.693-2.672,3.095-6.512c0.153-1.465,0.177-5.111,0.041-6.513c-0.375-3.879-1.335-5.748-3.356-6.53
		c-1.055-0.41-2.505-0.304-3.577,0.262c-1.823,0.959-2.647,2.99-2.926,7.207c-0.158,2.404-0.013,5.633,0.343,7.572
		c0.475,2.602,1.225,3.77,2.859,4.457c0.768,0.321,1.166,0.387,2.144,0.344C70.09-1095.769,70.293-1095.812,70.77-1096.027z
		 M10.314-1116.745c-0.13-1.062-0.376-2.028-0.667-2.621c-0.147-0.301-0.224-0.547-0.182-0.584c0.09-0.077,7.021-1.965,7.22-1.965
		c0.204,0,0.671,0.98,0.915,1.92c0.112,0.433,0.204,0.855,0.204,0.939c0,0.086,0.027,0.152,0.061,0.152
		c0.034-0.002,0.391-0.277,0.794-0.615c1.52-1.27,3.532-2.127,5.465-2.324c2.115-0.217,4.02,0.1,5.551,0.92
		c0.98,0.527,2.146,1.512,2.768,2.336l0.488,0.646l0.314-0.326c0.76-0.789,2.256-1.92,3.307-2.496
		c0.898-0.494,2.17-0.893,3.413-1.074c1.114-0.16,3.312-0.062,4.384,0.197c1.185,0.287,2.204,0.719,2.971,1.26
		c1.574,1.109,2.172,2.082,2.584,4.207c0.172,0.886,0.174,1.025,0.203,13.373l0.029,12.479H42.15v-10.935
		c0-7.028-0.03-11.18-0.084-11.623c-0.198-1.623-0.574-2.096-1.798-2.268c-1.429-0.199-3.438,0.574-5.267,2.025l-0.667,0.529v22.27
		h-7.729c-0.473-7.383,0.652-15.438-0.186-22.727c-0.296-1.433-0.807-1.955-2.059-2.107c-1.462-0.178-3.452,0.498-5.153,1.75
		l-0.664,0.488l-0.005,22.596h-7.979C10.282-1099.062,11.051-1108.048,10.314-1116.745z M86.536-1095.492l14.458-19.949
		l-13.248-0.043v-5.779h23.042v5.578c-4.502,6.535-9.129,12.986-13.598,19.545l14.18,0.037l-0.06,0.182l-1.888,5.56l-22.899,0.041
		L86.536-1095.492z M116.735-1120.853l0.184-0.041c2.589-0.43,5.187-0.809,7.775-1.227l0.266-0.046v31.845h-8.225V-1120.853z
		 M120.276-1124.939c-1.963-0.195-3.682-1.678-4.188-3.611c-0.703-2.688,0.707-5.361,3.273-6.201c0.483-0.158,0.754-0.19,1.592-0.19
		c1.578,0,2.481,0.356,3.508,1.381c0.986,0.985,1.412,2.067,1.418,3.586c0.004,1.563-0.406,2.584-1.457,3.637
		C123.332-1125.245,121.934-1124.773,120.276-1124.939z"/>
</g>
</svg>
